<svg width="30" height="28" viewBox="0 0 30 28" fill="none" xmlns="http://www.w3.org/2000/svg">
<mask id="path-1-inside-1_120_29" fill="white">
<path d="M6.45621 5.04901C6.69389 4.63604 7.05204 4.28998 7.49171 4.04847C7.93138 3.80697 8.43574 3.67924 8.94996 3.6792H21.0512C21.5654 3.67924 22.0698 3.80697 22.5095 4.04847C22.9491 4.28998 23.3073 4.63604 23.545 5.04901L26.1837 9.62825C26.4433 10.0785 26.5483 10.5888 26.4853 11.0935C26.4223 11.5982 26.194 12.0743 25.83 12.4607L15.7137 23.1928C15.6257 23.286 15.5164 23.3608 15.3934 23.4121C15.2704 23.4634 15.1366 23.49 15.0012 23.49C14.8658 23.49 14.732 23.4634 14.609 23.4121C14.486 23.3608 14.3767 23.286 14.2887 23.1928L4.17246 12.4607C3.80818 12.0745 3.57974 11.5984 3.51648 11.0937C3.45322 10.5889 3.55804 10.0786 3.81746 9.62825L6.45621 5.04901ZM8.68121 5.41241L11.2912 9.34863L13.925 5.37731H8.94996C8.85903 5.37789 8.76861 5.3897 8.68121 5.41241ZM12.9487 10.1467H17.0525L15 7.05278L12.9487 10.1467ZM19.4112 11.8449L16.99 19.2237L23.945 11.8449H19.4112ZM13.0112 19.2237L10.5912 11.8449H6.05621L13.0112 19.2237ZM12.5462 11.8449L15.0012 19.3245L17.455 11.8449H12.5462ZM22.5087 6.92033L20.3687 10.1467H24.3675L22.5087 6.92033ZM21.05 5.37731H16.075L18.7087 9.34863L21.32 5.41241C21.2322 5.38959 21.1413 5.37779 21.05 5.37731ZM9.63246 10.1467L7.49246 6.92033L5.63371 10.1467H9.63246Z"/>
</mask>
<path d="M6.45621 5.04901L9.92197 7.04613L9.92302 7.04431L6.45621 5.04901ZM8.94996 3.6792V-0.320801H8.94961L8.94996 3.6792ZM21.0512 3.6792L21.0516 -0.320801H21.0512V3.6792ZM23.545 5.04901L20.0782 7.04431L20.0792 7.04613L23.545 5.04901ZM26.1837 9.62825L22.718 11.6254L22.7184 11.6261L26.1837 9.62825ZM25.83 12.4607L28.7407 15.2044L28.7411 15.2039L25.83 12.4607ZM15.7137 23.1928L18.6221 25.939L18.6244 25.9365L15.7137 23.1928ZM14.2887 23.1928L11.378 25.9365L11.3804 25.939L14.2887 23.1928ZM4.17246 12.4607L7.08316 9.71702L7.08244 9.71626L4.17246 12.4607ZM3.81746 9.62825L0.351694 7.63114L0.351367 7.63171L3.81746 9.62825ZM8.68121 5.41241L7.67532 1.54095L2.24949 2.9507L5.34749 7.6229L8.68121 5.41241ZM11.2912 9.34863L7.95749 11.5591L11.2909 16.5864L14.6247 11.5594L11.2912 9.34863ZM13.925 5.37731L17.2585 7.58809L21.3774 1.37731H13.925V5.37731ZM8.94996 5.37731V1.37731H8.93725L8.92455 1.37739L8.94996 5.37731ZM12.9487 10.1467L9.61486 7.93645L5.49752 14.1467H12.9487V10.1467ZM17.0525 10.1467V14.1467H24.5062L20.3857 7.93551L17.0525 10.1467ZM15 7.05278L18.3332 4.84155L14.9989 -0.184535L11.6661 4.84249L15 7.05278ZM19.4112 11.8449V7.84486H16.5139L15.6106 10.5977L19.4112 11.8449ZM16.99 19.2237L13.1893 17.9766L19.9008 21.9673L16.99 19.2237ZM23.945 11.8449L26.8558 14.5884L33.212 7.84486H23.945V11.8449ZM13.0112 19.2237L10.1004 21.9673L16.812 17.9772L13.0112 19.2237ZM10.5912 11.8449L14.392 10.5983L13.489 7.84486H10.5912V11.8449ZM6.05621 11.8449V7.84486H-3.2108L3.14541 14.5884L6.05621 11.8449ZM12.5462 11.8449V7.84486H7.02336L8.74569 13.0923L12.5462 11.8449ZM15.0012 19.3245L11.2007 20.5719L15.0022 32.1538L18.8019 20.5713L15.0012 19.3245ZM17.455 11.8449L21.2557 13.0917L22.9769 7.84486H17.455V11.8449ZM22.5087 6.92033L25.9747 4.92357L22.7481 -0.677185L19.1753 4.70936L22.5087 6.92033ZM20.3687 10.1467L17.0353 7.93578L12.9157 14.1467H20.3687V10.1467ZM24.3675 10.1467V14.1467H31.2882L27.8334 8.14999L24.3675 10.1467ZM21.05 5.37731L21.0707 1.37737L21.0604 1.37731H21.05V5.37731ZM16.075 5.37731V1.37731H8.62248L12.7414 7.58809L16.075 5.37731ZM18.7087 9.34863L15.3752 11.5594L18.7082 16.5852L22.0419 11.5599L18.7087 9.34863ZM21.32 5.41241L24.6532 7.62364L27.753 2.9509L22.3258 1.54092L21.32 5.41241ZM9.63246 10.1467V14.1467H17.0854L12.9659 7.93578L9.63246 10.1467ZM7.49246 6.92033L10.8259 4.70936L7.25311 -0.677185L4.02649 4.92357L7.49246 6.92033ZM5.63371 10.1467L2.16774 8.14999L-1.28702 14.1467H5.63371V10.1467ZM9.92302 7.04431C9.77548 7.30066 9.58478 7.46249 9.41749 7.55438L5.56592 0.542572C4.5193 1.11748 3.61231 1.97141 2.9894 3.05371L9.92302 7.04431ZM9.41749 7.55438C9.25191 7.64533 9.09165 7.67919 8.95031 7.6792L8.94961 -0.320801C7.77983 -0.320698 6.61084 -0.0314004 5.56592 0.542572L9.41749 7.55438ZM8.94996 7.6792H21.0512V-0.320801H8.94996V7.6792ZM21.0509 7.6792C20.9095 7.67919 20.7493 7.64533 20.5837 7.55438L24.4352 0.542572C23.3903 -0.0314007 22.2213 -0.320698 21.0516 -0.320801L21.0509 7.6792ZM20.5837 7.55438C20.4164 7.46249 20.2257 7.30067 20.0782 7.04431L27.0118 3.05371C26.3889 1.97141 25.4819 1.11748 24.4352 0.542572L20.5837 7.55438ZM20.0792 7.04613L22.718 11.6254L29.6495 7.63114L27.0107 3.05189L20.0792 7.04613ZM22.7184 11.6261C22.5534 11.3399 22.4688 10.977 22.5161 10.5978L30.4545 11.5892C30.6279 10.2005 30.3333 8.81714 29.649 7.63037L22.7184 11.6261ZM22.5161 10.5978C22.5631 10.2216 22.7278 9.9202 22.9188 9.71751L28.7411 15.2039C29.6603 14.2285 30.2814 12.9749 30.4545 11.5892L22.5161 10.5978ZM22.9193 9.71702L12.803 20.4491L18.6244 25.9365L28.7407 15.2044L22.9193 9.71702ZM12.8054 20.4466C13.1175 20.1161 13.48 19.8762 13.8534 19.7205L16.9335 27.1038C17.5528 26.8454 18.1339 26.4559 18.6221 25.939L12.8054 20.4466ZM13.8534 19.7205C14.2263 19.5649 14.6167 19.49 15.0012 19.49V27.49C15.6566 27.49 16.3146 27.362 16.9335 27.1038L13.8534 19.7205ZM15.0012 19.49C15.3857 19.49 15.7761 19.5649 16.149 19.7205L13.0689 27.1038C13.6879 27.362 14.3459 27.49 15.0012 27.49V19.49ZM16.149 19.7205C16.5224 19.8762 16.885 20.1161 17.1971 20.4466L11.3804 25.939C11.8685 26.4559 12.4496 26.8454 13.0689 27.1038L16.149 19.7205ZM17.1994 20.4491L7.08316 9.71702L1.26175 15.2044L11.378 25.9365L17.1994 20.4491ZM7.08244 9.71626C7.27347 9.91881 7.43828 10.22 7.48543 10.5962L-0.452466 11.5911C-0.278799 12.9767 0.3429 14.2301 1.26247 15.2052L7.08244 9.71626ZM7.48543 10.5962C7.53296 10.9754 7.44852 11.3384 7.28355 11.6248L0.351367 7.63171C-0.332444 8.81883 -0.626511 10.2024 -0.452466 11.5911L7.48543 10.5962ZM7.28322 11.6254L9.92197 7.04613L2.99044 3.05189L0.351694 7.63114L7.28322 11.6254ZM5.34749 7.6229L7.95749 11.5591L14.6249 7.13814L12.0149 3.20191L5.34749 7.6229ZM14.6247 11.5594L17.2585 7.58809L10.5914 3.16654L7.95767 7.13786L14.6247 11.5594ZM13.925 1.37731H8.94996V9.37731H13.925V1.37731ZM8.92455 1.37739C8.50504 1.38006 8.0852 1.43445 7.67532 1.54095L9.6871 9.28386C9.45203 9.34494 9.21302 9.37572 8.97537 9.37723L8.92455 1.37739ZM12.9487 14.1467H17.0525V6.14675H12.9487V14.1467ZM20.3857 7.93551L18.3332 4.84155L11.6667 9.26402L13.7192 12.358L20.3857 7.93551ZM11.6661 4.84249L9.61486 7.93645L16.2826 12.357L18.3338 9.26308L11.6661 4.84249ZM15.6106 10.5977L13.1893 17.9766L20.7906 20.4708L23.2118 13.092L15.6106 10.5977ZM19.9008 21.9673L26.8558 14.5884L21.0342 9.10127L14.0792 16.4801L19.9008 21.9673ZM23.945 7.84486H19.4112V15.8449H23.945V7.84486ZM16.812 17.9772L14.392 10.5983L6.7904 13.0914L9.2104 20.4703L16.812 17.9772ZM10.5912 7.84486H6.05621V15.8449H10.5912V7.84486ZM3.14541 14.5884L10.1004 21.9673L15.922 16.4801L8.967 9.10127L3.14541 14.5884ZM8.74569 13.0923L11.2007 20.5719L18.8017 18.0771L16.3467 10.5974L8.74569 13.0923ZM18.8019 20.5713L21.2557 13.0917L13.6543 10.598L11.2005 18.0776L18.8019 20.5713ZM17.455 7.84486H12.5462V15.8449H17.455V7.84486ZM19.1753 4.70936L17.0353 7.93578L23.7021 12.3577L25.8421 9.1313L19.1753 4.70936ZM20.3687 14.1467H24.3675V6.14675H20.3687V14.1467ZM27.8334 8.14999L25.9747 4.92357L19.0427 8.91709L20.9015 12.1435L27.8334 8.14999ZM21.05 1.37731H16.075V9.37731H21.05V1.37731ZM12.7414 7.58809L15.3752 11.5594L22.0422 7.13786L19.4085 3.16654L12.7414 7.58809ZM22.0419 11.5599L24.6532 7.62364L17.9867 3.20117L15.3755 7.1374L22.0419 11.5599ZM22.3258 1.54092C21.914 1.43395 21.4922 1.37956 21.0707 1.37737L21.0292 9.37726C20.7904 9.37602 20.5503 9.34524 20.3142 9.28389L22.3258 1.54092ZM12.9659 7.93578L10.8259 4.70936L4.15905 9.1313L6.29905 12.3577L12.9659 7.93578ZM4.02649 4.92357L2.16774 8.14999L9.09968 12.1435L10.9584 8.91709L4.02649 4.92357ZM5.63371 14.1467H9.63246V6.14675H5.63371V14.1467Z" fill="white" mask="url(#path-1-inside-1_120_29)"/>
</svg>
