<svg width="24" height="21" viewBox="0 0 24 21" fill="none" xmlns="http://www.w3.org/2000/svg">
<mask id="path-1-inside-1_151_8" fill="white">
<path d="M3.45621 2.04901C3.69389 1.63604 4.05204 1.28998 4.49171 1.04847C4.93138 0.806966 5.43574 0.679245 5.94996 0.679199H18.0512C18.5654 0.679245 19.0698 0.806966 19.5095 1.04847C19.9491 1.28998 20.3073 1.63604 20.545 2.04901L23.1837 6.62825C23.4433 7.07851 23.5483 7.58877 23.4853 8.09349C23.4223 8.59821 23.194 9.07434 22.83 9.46071L12.7137 20.1928C12.6257 20.286 12.5164 20.3608 12.3934 20.4121C12.2704 20.4634 12.1366 20.49 12.0012 20.49C11.8658 20.49 11.732 20.4634 11.609 20.4121C11.486 20.3608 11.3767 20.286 11.2887 20.1928L1.17246 9.46071C0.808183 9.07446 0.579741 8.59839 0.516483 8.09367C0.453224 7.58894 0.558038 7.07862 0.817459 6.62825L3.45621 2.04901ZM5.68121 2.41241L8.29121 6.34863L10.925 2.37731H5.94996C5.85903 2.37789 5.76861 2.3897 5.68121 2.41241ZM9.94871 7.14675H14.0525L12 4.05278L9.94871 7.14675ZM16.4112 8.84486L13.99 16.2237L20.945 8.84486H16.4112ZM10.0112 16.2237L7.59121 8.84486H3.05621L10.0112 16.2237ZM9.54621 8.84486L12.0012 16.3245L14.455 8.84486H9.54621ZM19.5087 3.92033L17.3687 7.14675H21.3675L19.5087 3.92033ZM18.05 2.37731H13.075L15.7087 6.34863L18.32 2.41241C18.2322 2.38959 18.1413 2.37779 18.05 2.37731ZM6.63246 7.14675L4.49246 3.92033L2.63371 7.14675H6.63246Z"/>
</mask>
<path d="M3.45621 2.04901L6.92197 4.04613L6.92302 4.04431L3.45621 2.04901ZM5.94996 0.679199V-3.3208H5.94961L5.94996 0.679199ZM18.0512 0.679199L18.0516 -3.3208H18.0512V0.679199ZM20.545 2.04901L17.0782 4.04431L17.0792 4.04613L20.545 2.04901ZM23.1837 6.62825L19.718 8.62537L19.7184 8.62614L23.1837 6.62825ZM22.83 9.46071L25.7407 12.2044L25.7411 12.2039L22.83 9.46071ZM12.7137 20.1928L15.6221 22.939L15.6244 22.9365L12.7137 20.1928ZM11.2887 20.1928L8.378 22.9365L8.38036 22.939L11.2887 20.1928ZM1.17246 9.46071L4.08316 6.71702L4.08244 6.71626L1.17246 9.46071ZM0.817459 6.62825L-2.64831 4.63114L-2.64863 4.63171L0.817459 6.62825ZM5.68121 2.41241L4.67532 -1.45905L-0.750515 -0.0492951L2.34749 4.6229L5.68121 2.41241ZM8.29121 6.34863L4.95749 8.55913L8.29091 13.5864L11.6247 8.55941L8.29121 6.34863ZM10.925 2.37731L14.2585 4.58809L18.3774 -1.62269H10.925V2.37731ZM5.94996 2.37731V-1.62269H5.93725L5.92455 -1.62261L5.94996 2.37731ZM9.94871 7.14675L6.61486 4.93645L2.49752 11.1467H9.94871V7.14675ZM14.0525 7.14675V11.1467H21.5062L17.3857 4.93551L14.0525 7.14675ZM12 4.05278L15.3332 1.84155L11.9989 -3.18454L8.6661 1.84249L12 4.05278ZM16.4112 8.84486V4.84486H13.5139L12.6106 7.59775L16.4112 8.84486ZM13.99 16.2237L10.1893 14.9766L16.9008 18.9673L13.99 16.2237ZM20.945 8.84486L23.8558 11.5884L30.212 4.84486H20.945V8.84486ZM10.0112 16.2237L7.10042 18.9673L13.812 14.9772L10.0112 16.2237ZM7.59121 8.84486L11.392 7.59833L10.489 4.84486H7.59121V8.84486ZM3.05621 8.84486V4.84486H-6.2108L0.145415 11.5884L3.05621 8.84486ZM9.54621 8.84486V4.84486H4.02336L5.74569 10.0923L9.54621 8.84486ZM12.0012 16.3245L8.20069 17.5719L12.0022 29.1538L15.8019 17.5713L12.0012 16.3245ZM14.455 8.84486L18.2557 10.0917L19.9769 4.84486H14.455V8.84486ZM19.5087 3.92033L22.9747 1.92357L19.7481 -3.67718L16.1753 1.70936L19.5087 3.92033ZM17.3687 7.14675L14.0353 4.93578L9.91572 11.1467H17.3687V7.14675ZM21.3675 7.14675V11.1467H28.2882L24.8334 5.14999L21.3675 7.14675ZM18.05 2.37731L18.0707 -1.62263L18.0604 -1.62269H18.05V2.37731ZM13.075 2.37731V-1.62269H5.62248L9.74142 4.58809L13.075 2.37731ZM15.7087 6.34863L12.3752 8.55941L15.7082 13.5852L19.0419 8.55986L15.7087 6.34863ZM18.32 2.41241L21.6532 4.62364L24.753 -0.0491002L19.3258 -1.45908L18.32 2.41241ZM6.63246 7.14675V11.1467H14.0854L9.96587 4.93578L6.63246 7.14675ZM4.49246 3.92033L7.82587 1.70936L4.25311 -3.67719L1.02649 1.92357L4.49246 3.92033ZM2.63371 7.14675L-0.832262 5.14999L-4.28702 11.1467H2.63371V7.14675ZM6.92302 4.04431C6.77548 4.30066 6.58478 4.46249 6.41749 4.55438L2.56592 -2.45743C1.5193 -1.88252 0.612307 -1.02859 -0.010603 0.0537123L6.92302 4.04431ZM6.41749 4.55438C6.25191 4.64533 6.09165 4.67919 5.95031 4.6792L5.94961 -3.3208C4.77983 -3.3207 3.61084 -3.0314 2.56592 -2.45743L6.41749 4.55438ZM5.94996 4.6792H18.0512V-3.3208H5.94996V4.6792ZM18.0509 4.6792C17.9095 4.67919 17.7493 4.64533 17.5837 4.55438L21.4352 -2.45743C20.3903 -3.0314 19.2213 -3.3207 18.0516 -3.3208L18.0509 4.6792ZM17.5837 4.55438C17.4164 4.46249 17.2257 4.30067 17.0782 4.04431L24.0118 0.0537123C23.3889 -1.02859 22.4819 -1.88252 21.4352 -2.45743L17.5837 4.55438ZM17.0792 4.04613L19.718 8.62537L26.6495 4.63114L24.0107 0.0518933L17.0792 4.04613ZM19.7184 8.62614C19.5534 8.33988 19.4688 7.977 19.5161 7.59778L27.4545 8.58921C27.6279 7.20054 27.3333 5.81714 26.649 4.63037L19.7184 8.62614ZM19.5161 7.59778C19.5631 7.22156 19.7278 6.9202 19.9188 6.71751L25.7411 12.2039C26.6603 11.2285 27.2814 9.97487 27.4545 8.58921L19.5161 7.59778ZM19.9193 6.71702L9.80301 17.4491L15.6244 22.9365L25.7407 12.2044L19.9193 6.71702ZM9.80536 17.4466C10.1175 17.1161 10.48 16.8762 10.8534 16.7205L13.9335 24.1038C14.5528 23.8454 15.1339 23.4559 15.6221 22.939L9.80536 17.4466ZM10.8534 16.7205C11.2263 16.5649 11.6167 16.49 12.0012 16.49V24.49C12.6566 24.49 13.3146 24.362 13.9335 24.1038L10.8534 16.7205ZM12.0012 16.49C12.3857 16.49 12.7761 16.5649 13.149 16.7205L10.0689 24.1038C10.6879 24.362 11.3459 24.49 12.0012 24.49V16.49ZM13.149 16.7205C13.5224 16.8762 13.885 17.1161 14.1971 17.4466L8.38036 22.939C8.86848 23.4559 9.44958 23.8454 10.0689 24.1038L13.149 16.7205ZM14.1994 17.4491L4.08316 6.71702L-1.73825 12.2044L8.37801 22.9365L14.1994 17.4491ZM4.08244 6.71626C4.27347 6.91881 4.43828 7.22004 4.48543 7.59623L-3.45247 8.59111C-3.2788 9.97675 -2.6571 11.2301 -1.73753 12.2052L4.08244 6.71626ZM4.48543 7.59623C4.53296 7.97544 4.44852 8.33841 4.28355 8.6248L-2.64863 4.63171C-3.33244 5.81883 -3.62651 7.20245 -3.45247 8.59111L4.48543 7.59623ZM4.28322 8.62537L6.92197 4.04613L-0.00955534 0.0518933L-2.64831 4.63114L4.28322 8.62537ZM2.34749 4.6229L4.95749 8.55913L11.6249 4.13814L9.01493 0.20191L2.34749 4.6229ZM11.6247 8.55941L14.2585 4.58809L7.59142 0.166535L4.95767 4.13786L11.6247 8.55941ZM10.925 -1.62269H5.94996V6.37731H10.925V-1.62269ZM5.92455 -1.62261C5.50504 -1.61994 5.0852 -1.56555 4.67532 -1.45905L6.6871 6.28386C6.45203 6.34494 6.21302 6.37572 5.97537 6.37723L5.92455 -1.62261ZM9.94871 11.1467H14.0525V3.14675H9.94871V11.1467ZM17.3857 4.93551L15.3332 1.84155L8.66673 6.26402L10.7192 9.35798L17.3857 4.93551ZM8.6661 1.84249L6.61486 4.93645L13.2826 9.35704L15.3338 6.26308L8.6661 1.84249ZM12.6106 7.59775L10.1893 14.9766L17.7906 17.4708L20.2118 10.092L12.6106 7.59775ZM16.9008 18.9673L23.8558 11.5884L18.0342 6.10127L11.0792 13.4801L16.9008 18.9673ZM20.945 4.84486H16.4112V12.8449H20.945V4.84486ZM13.812 14.9772L11.392 7.59833L3.7904 10.0914L6.2104 17.4703L13.812 14.9772ZM7.59121 4.84486H3.05621V12.8449H7.59121V4.84486ZM0.145415 11.5884L7.10042 18.9673L12.922 13.4801L5.967 6.10127L0.145415 11.5884ZM5.74569 10.0923L8.20069 17.5719L15.8017 15.0771L13.3467 7.59743L5.74569 10.0923ZM15.8019 17.5713L18.2557 10.0917L10.6543 7.59801L8.20051 15.0776L15.8019 17.5713ZM14.455 4.84486H9.54621V12.8449H14.455V4.84486ZM16.1753 1.70936L14.0353 4.93578L20.7021 9.35771L22.8421 6.1313L16.1753 1.70936ZM17.3687 11.1467H21.3675V3.14675H17.3687V11.1467ZM24.8334 5.14999L22.9747 1.92357L16.0427 5.91709L17.9015 9.14351L24.8334 5.14999ZM18.05 -1.62269H13.075V6.37731H18.05V-1.62269ZM9.74142 4.58809L12.3752 8.55941L19.0422 4.13786L16.4085 0.166535L9.74142 4.58809ZM19.0419 8.55986L21.6532 4.62364L14.9867 0.201175L12.3755 4.1374L19.0419 8.55986ZM19.3258 -1.45908C18.914 -1.56605 18.4922 -1.62044 18.0707 -1.62263L18.0292 6.37726C17.7904 6.37602 17.5503 6.34524 17.3142 6.28389L19.3258 -1.45908ZM9.96587 4.93578L7.82587 1.70936L1.15905 6.1313L3.29905 9.35771L9.96587 4.93578ZM1.02649 1.92357L-0.832262 5.14999L6.09968 9.14351L7.95843 5.91709L1.02649 1.92357ZM2.63371 11.1467H6.63246V3.14675H2.63371V11.1467Z" fill="white" mask="url(#path-1-inside-1_151_8)"/>
</svg>
